<svg xmlns="http://www.w3.org/2000/svg" width="333" height="111" viewBox="0 0 333 111" version="1.1"><path d="M 16.414 8.370 C 13.349 9.756, 7.657 15.990, 8.597 16.930 C 8.867 17.201, 10.081 16.234, 11.294 14.781 C 15.030 10.309, 19.958 8.008, 25.809 8.004 C 29.437 8.001, 30.901 8.351, 30.434 9.107 C 29.968 9.861, 30.467 9.987, 32 9.500 C 33.686 8.965, 34.053 9.106, 33.461 10.063 C 32.900 10.971, 33.153 11.155, 34.336 10.701 C 35.251 10.350, 36 10.407, 36 10.827 C 36 11.247, 38.937 13.097, 42.526 14.938 C 48.576 18.041, 54.574 23.754, 57.812 29.500 C 58.869 31.376, 58.941 31.384, 58.970 29.629 C 59.014 26.870, 44.340 12.763, 38.500 9.951 C 32.419 7.022, 21.173 6.217, 16.414 8.370 M 60.251 35.250 C 60.507 35.938, 61.750 40.100, 63.013 44.500 C 65.467 53.046, 68.849 58.707, 67.494 52 C 66.693 48.034, 61.084 34, 60.300 34 C 60.017 34, 59.995 34.563, 60.251 35.250 M 6.008 42.230 C 6.003 42.631, 6.635 44.656, 7.412 46.730 C 9.353 51.914, 10.215 57.251, 8.988 56.493 C 7.618 55.646, 8.703 58.245, 16.325 74.058 C 21.278 84.332, 23.494 87.904, 25.477 88.808 C 29.089 90.453, 29.317 90.317, 26.939 87.939 C 25.636 86.636, 24.993 84.890, 25.189 83.189 C 25.455 80.888, 26.025 80.456, 29.135 80.196 C 32.089 79.950, 33.167 80.397, 34.885 82.581 C 36.525 84.665, 37 84.880, 37 83.536 C 37 80.700, 31.180 75.917, 28.536 76.580 C 26.959 76.976, 26.071 76.628, 25.613 75.433 C 25.055 73.980, 25.191 73.914, 26.501 75.001 C 27.352 75.707, 28.286 76.047, 28.577 75.757 C 28.868 75.466, 28.063 74.389, 26.788 73.364 C 21.871 69.408, 15.800 60.972, 11.009 51.437 C 8.262 45.972, 6.012 41.828, 6.008 42.230 M 71.031 54.500 C 71.031 55.050, 71.467 56.175, 72 57 C 72.533 57.825, 72.969 58.050, 72.969 57.500 C 72.969 56.950, 72.533 55.825, 72 55 C 71.467 54.175, 71.031 53.950, 71.031 54.500 M 54.616 59.003 C 52.495 61.351, 51 64.038, 51 65.503 C 51 68.373, 50.754 68.325, 58.566 66.973 C 70.449 64.918, 70.423 64.942, 67.250 58.566 C 65.954 55.962, 64.851 55.044, 63 55.028 C 60.645 55.009, 60.703 55.134, 64 57.196 L 67.500 59.384 63.500 60.134 C 61.300 60.547, 58.193 60.911, 56.595 60.942 C 53.753 60.999, 53.729 60.957, 55.500 59 C 56.495 57.900, 57.915 57, 58.655 57 C 59.395 57, 60 56.550, 60 56 C 60 54.042, 58.182 55.057, 54.616 59.003 M 73.116 59 C 73.091 59.275, 73.922 62.425, 74.964 66 C 76.339 70.721, 76.870 71.679, 76.903 69.500 C 76.938 67.136, 73.296 57.037, 73.116 59 M 32.750 63.702 C 33.438 63.947, 34 65.014, 34 66.073 C 34 67.556, 33.251 68.027, 30.750 68.118 C 28.103 68.213, 28.392 68.385, 32.308 69.043 C 34.952 69.487, 37.764 70.389, 38.558 71.048 C 39.760 72.045, 40 71.745, 40 69.245 C 40 65.733, 38.428 64.157, 34.405 63.635 C 32.807 63.428, 32.063 63.458, 32.750 63.702 M 63.250 77.286 C 62.013 77.847, 61 78.881, 61 79.583 C 61 80.286, 59.987 81.056, 58.750 81.294 C 57.038 81.624, 57.240 81.760, 59.595 81.864 C 61.524 81.949, 63.352 81.268, 64.448 80.058 C 66.775 77.486, 66.126 75.982, 63.250 77.286 M 28.774 81.709 C 30.024 81.949, 32.021 83.463, 33.212 85.073 C 34.402 86.683, 35.774 88, 36.259 88 C 36.745 88, 36.548 87.375, 35.821 86.612 C 35.095 85.848, 33.717 84.273, 32.760 83.112 C 31.803 81.950, 30.003 81.061, 28.760 81.136 L 26.500 81.272 28.774 81.709 M 106.500 85 C 105.718 86.266, 107.042 86.266, 109 85 C 110.293 84.165, 110.266 84.029, 108.809 84.015 C 107.879 84.007, 106.840 84.450, 106.500 85 M 39.232 87 C 37.806 89.284, 35.754 89.567, 33.798 87.750 C 33.058 87.063, 31.901 86.388, 31.226 86.250 C 29.746 85.948, 29.590 87.629, 31.016 88.510 C 31.575 88.856, 31.731 89.627, 31.362 90.224 C 30.986 90.832, 31.152 91.024, 31.739 90.661 C 32.316 90.305, 34.451 90.708, 36.485 91.558 C 38.518 92.408, 39.889 92.630, 39.532 92.051 C 39.154 91.440, 39.788 91, 41.048 91 C 42.698 91, 43.055 91.417, 42.548 92.750 C 42.026 94.121, 42.145 94.238, 43.098 93.292 C 44.894 91.510, 42.361 88.779, 39.609 89.530 C 37.553 90.091, 37.556 90.057, 39.750 88.143 C 42.052 86.134, 42.590 85, 41.241 85 C 40.823 85, 39.919 85.900, 39.232 87 M 108.646 88.452 C 105.473 91.393, 105.341 91.985, 108.016 91.286 C 110.106 90.739, 111.307 89.399, 111.633 87.250 C 111.891 85.552, 111.687 85.634, 108.646 88.452" stroke="none" fill="#538abb" fill-rule="evenodd"/><path d="M 56 29.500 C 56 30.325, 56.436 31, 56.969 31 C 57.501 31, 57.678 30.325, 57.362 29.500 C 57.045 28.675, 56.609 28, 56.393 28 C 56.177 28, 56 28.675, 56 29.500 M 71.031 66 C 71.031 71.207, 71.327 73.041, 72 72 C 72.533 71.175, 72.969 68.475, 72.969 66 C 72.969 63.525, 72.533 60.825, 72 60 C 71.327 58.959, 71.031 60.793, 71.031 66 M 36.250 75.155 C 39.243 77.981, 41 80.492, 41 81.942 C 41 83.876, 41.241 84.045, 42.500 83 C 43.325 82.315, 44 80.935, 44 79.933 C 44 77.491, 39.773 72.700, 37.402 72.455 C 36.356 72.347, 34.600 71.901, 33.500 71.464 C 32.400 71.027, 33.638 72.688, 36.250 75.155 M 58.739 73.959 C 54.205 74.839, 53.057 75.792, 55.029 77.039 C 57.661 78.704, 61.827 78.054, 64.694 75.532 L 67.500 73.063 65 73.147 C 63.625 73.192, 60.808 73.558, 58.739 73.959 M 46.764 78.639 C 46.228 82.950, 46.391 83.495, 47.933 82.541 C 49.211 81.752, 49.311 78.040, 48.107 76.139 C 47.512 75.200, 47.096 75.974, 46.764 78.639 M 26.589 80.856 C 26.298 81.326, 27.174 81.498, 28.536 81.238 C 31.271 80.715, 33.784 82.347, 35.048 85.465 C 35.716 87.111, 35.885 87.173, 35.937 85.789 C 36.072 82.139, 28.323 78.050, 26.589 80.856" stroke="none" fill="#000000" fill-rule="evenodd"/><path d="M 5.500 47.405 C 5.500 48.727, 5.799 49.624, 6.165 49.398 C 6.530 49.172, 7.282 50.228, 7.836 51.744 C 8.726 54.182, 8.851 54.246, 8.921 52.297 C 9.005 49.959, 7.080 45, 6.089 45 C 5.765 45, 5.500 46.082, 5.500 47.405 M 145 63.306 C 139.886 65.050, 138.003 69.482, 138.002 79.782 C 138 88.906, 139.612 94.187, 142.944 95.970 C 146.712 97.986, 154.240 98.344, 158.187 96.695 C 164.138 94.209, 165.500 91.099, 165.500 80 C 165.500 72.397, 165.122 69.834, 163.672 67.622 C 160.352 62.556, 152.514 60.744, 145 63.306 M 198 77.545 C 198 92.821, 198.044 93.135, 200.517 95.608 C 203.673 98.764, 209.500 98.723, 209.500 95.545 C 209.500 94.284, 208.613 93.381, 207 93.001 L 204.500 92.412 204.224 77.206 L 203.948 62 200.974 62 L 198 62 198 77.545 M 212.362 63.500 C 211.404 65.995, 212.789 68, 215.469 68 C 217.615 68, 218 67.543, 218 65 C 218 62.457, 217.615 62, 215.469 62 C 214.076 62, 212.678 62.675, 212.362 63.500 M 146.441 68.419 C 144.740 69.663, 144.500 71.096, 144.500 80 C 144.500 88.904, 144.740 90.337, 146.441 91.581 C 149.177 93.581, 154.355 93.343, 157.139 91.088 C 159.310 89.331, 159.500 88.438, 159.500 80 C 159.500 71.562, 159.310 70.669, 157.139 68.912 C 154.355 66.657, 149.177 66.419, 146.441 68.419 M 180.500 74 C 175.808 76.392, 176 76.371, 176 74.500 C 176 73.567, 175.056 73, 173.500 73 L 171 73 171 85 L 171 97 174 97 L 177 97 177 88.716 C 177 80.632, 177.070 80.390, 179.904 78.716 C 181.502 77.772, 183.977 77, 185.404 77 L 188 77 188 87 L 188 97 191 97 L 194 97 194 86.500 C 194 74.770, 192.703 72, 187.211 72 C 185.678 72, 182.658 72.900, 180.500 74 M 232.500 74 C 227.808 76.392, 228 76.371, 228 74.500 C 228 73.567, 227.056 73, 225.500 73 L 223 73 223 85 L 223 97 226 97 L 229 97 229 88.716 C 229 80.632, 229.070 80.390, 231.904 78.716 C 233.502 77.772, 235.977 77, 237.404 77 L 240 77 240 87 L 240 97 243 97 L 246 97 246 86.500 C 246 74.770, 244.703 72, 239.211 72 C 237.678 72, 234.658 72.900, 232.500 74 M 255.901 73.112 C 252.175 74.480, 250.497 78.371, 250.518 85.596 C 250.533 90.791, 250.941 92.309, 252.877 94.369 C 255.622 97.291, 260.968 98.427, 267.417 97.460 C 270.998 96.923, 272 96.361, 272 94.886 C 272 93.233, 271.204 93, 265.557 93 C 260.032 93, 258.891 92.683, 257.557 90.777 C 256.701 89.555, 256 88.205, 256 87.777 C 256 87.350, 259.118 87, 262.929 87 C 267.894 87, 270.302 86.555, 271.429 85.429 C 273.195 83.662, 273.502 78.806, 272.021 76.039 C 270.151 72.544, 261.652 71.001, 255.901 73.112 M 213 85 L 213 97 215.500 97 L 218 97 218 85 L 218 73 215.500 73 L 213 73 213 85 M 257.064 78.880 C 255.113 82.526, 255.746 83.119, 261.250 82.802 C 266.103 82.523, 266.500 82.311, 266.500 80 C 266.500 77.780, 266.031 77.466, 262.314 77.196 C 258.971 76.953, 257.914 77.291, 257.064 78.880" stroke="none" fill="#79b1dc" fill-rule="evenodd"/><path d="M 56 29.500 C 56 30.325, 56.436 31, 56.969 31 C 57.501 31, 57.678 30.325, 57.362 29.500 C 57.045 28.675, 56.609 28, 56.393 28 C 56.177 28, 56 28.675, 56 29.500 M 71.031 66 C 71.031 71.207, 71.327 73.041, 72 72 C 72.533 71.175, 72.969 68.475, 72.969 66 C 72.969 63.525, 72.533 60.825, 72 60 C 71.327 58.959, 71.031 60.793, 71.031 66 M 36.250 75.155 C 39.243 77.981, 41 80.492, 41 81.942 C 41 83.876, 41.241 84.045, 42.500 83 C 43.325 82.315, 44 80.935, 44 79.933 C 44 77.491, 39.773 72.700, 37.402 72.455 C 36.356 72.347, 34.600 71.901, 33.500 71.464 C 32.400 71.027, 33.638 72.688, 36.250 75.155 M 58.739 73.959 C 54.205 74.839, 53.057 75.792, 55.029 77.039 C 57.661 78.704, 61.827 78.054, 64.694 75.532 L 67.500 73.063 65 73.147 C 63.625 73.192, 60.808 73.558, 58.739 73.959 M 46.764 78.639 C 46.228 82.950, 46.391 83.495, 47.933 82.541 C 49.211 81.752, 49.311 78.040, 48.107 76.139 C 47.512 75.200, 47.096 75.974, 46.764 78.639 M 26.589 80.856 C 26.298 81.326, 27.174 81.498, 28.536 81.238 C 31.271 80.715, 33.784 82.347, 35.048 85.465 C 35.716 87.111, 35.885 87.173, 35.937 85.789 C 36.072 82.139, 28.323 78.050, 26.589 80.856" stroke="none" fill="#000000" fill-rule="evenodd"/><path d="M 22.768 8.725 C 24.565 8.947, 27.265 8.943, 28.768 8.715 C 30.271 8.486, 28.800 8.304, 25.500 8.310 C 22.200 8.315, 20.971 8.502, 22.768 8.725 M 8.150 14.952 C 3.975 20.715, 2.672 26.501, 3.244 36.727 C 3.582 42.764, 4.445 47.145, 6.011 50.774 C 8.902 57.475, 9.742 56.956, 7.051 50.130 C 5.608 46.468, 5.383 44.991, 6.265 44.968 C 6.944 44.951, 6.626 44.276, 5.559 43.468 C 4.491 42.661, 4.094 42, 4.675 42 C 5.365 42, 5.560 39.582, 5.236 35.048 C 4.653 26.913, 6.129 20.008, 9.572 14.750 C 12.824 9.785, 11.786 9.933, 8.150 14.952 M 60 55.974 C 60 56.538, 59.395 57, 58.655 57 C 57.915 57, 56.495 57.900, 55.500 59 C 53.747 60.937, 53.753 61, 55.705 61 C 60.282 61, 66.917 59.674, 66.414 58.860 C 65.480 57.350, 60 54.884, 60 55.974 M 25.675 63.704 C 23.941 64.152, 23.936 64.272, 25.580 66.088 C 27.962 68.720, 34 68.741, 34 66.117 C 34 63.591, 30.280 62.513, 25.675 63.704 M 50.115 69.282 C 49.857 75.532, 53.972 81, 58.934 81 C 61.974 81, 61.453 78.526, 58.375 78.348 C 54.815 78.142, 51.863 74.944, 50.970 70.327 C 50.358 67.164, 50.210 66.983, 50.115 69.282 M 25.584 75.359 C 25.931 76.261, 26.916 77, 27.774 77 C 28.631 77, 29.146 76.873, 28.917 76.717 C 28.688 76.561, 27.702 75.823, 26.727 75.076 C 25.184 73.893, 25.036 73.930, 25.584 75.359 M 25.667 82.667 C 23.698 84.635, 27.381 90, 30.700 90 C 32.022 90, 32.133 89.733, 31.200 88.800 C 29.585 87.185, 29.689 86.333, 31.500 86.333 C 32.325 86.333, 33 86.664, 33 87.069 C 33 87.955, 39.132 90.202, 39.780 89.553 C 40.031 89.302, 39.118 88.817, 37.750 88.474 C 36.383 88.130, 34.292 86.534, 33.103 84.925 C 31.071 82.177, 27.301 81.032, 25.667 82.667 M 104.667 84.667 C 104.300 85.033, 104 86.110, 104 87.058 C 104 88.064, 102.958 89.045, 101.500 89.411 C 100.125 89.756, 99 90.506, 99 91.078 C 99 91.650, 99.563 91.794, 100.250 91.399 C 100.938 91.003, 101.159 91.055, 100.743 91.514 C 100.326 91.972, 98.976 92.422, 97.743 92.514 C 96.509 92.605, 91.712 93.264, 87.083 93.979 C 77.109 95.519, 58.179 94.837, 50.007 92.642 C 45.879 91.533, 44.332 91.457, 43.781 92.334 C 42.840 93.828, 48.545 95.562, 59.354 97.067 C 69.223 98.442, 84.336 97.603, 95.806 95.045 C 102.857 93.472, 104.652 92.635, 107.691 89.506 C 110.481 86.633, 111.478 86.116, 112.212 87.160 C 112.962 88.229, 113.065 88.196, 112.720 87 C 112.440 86.032, 111.174 85.552, 109.148 85.647 C 107.422 85.728, 106.259 85.390, 106.564 84.897 C 107.204 83.861, 105.660 83.673, 104.667 84.667" stroke="none" fill="#83afc5" fill-rule="evenodd"/><path d="M 48.085 20.717 C 50.517 23.348, 53.213 26.593, 54.077 27.929 C 55.318 29.846, 55.771 30.040, 56.227 28.852 C 56.889 27.126, 48.607 17.567, 45.582 16.568 C 44.360 16.164, 45.268 17.669, 48.085 20.717 M 91.094 20.244 C 86.192 22.051, 83.931 25.674, 83.290 32.742 C 82.037 46.553, 85.397 53.187, 94.321 54.525 C 96.877 54.909, 101.092 54.834, 103.689 54.360 C 107.517 53.660, 108.542 53.024, 109.106 50.999 C 109.530 49.473, 109.839 49.171, 109.900 50.224 C 110.160 54.713, 120.872 56.236, 125.124 52.388 C 126.852 50.824, 127 50.820, 127 52.345 C 127 53.570, 127.910 54, 130.500 54 L 134 54 134 45.065 C 134 40.151, 133.578 35.020, 133.062 33.663 C 131.707 30.099, 126.446 28.652, 117.944 29.506 C 111.476 30.155, 111 30.367, 111 32.601 C 111 34.879, 111.318 35, 117.300 35 C 123.083 35, 126 36.073, 126 38.200 C 126 38.640, 123.270 39, 119.934 39 C 112.572 39, 110.366 40.055, 109.502 43.992 C 108.846 46.979, 108.793 47, 101.992 47 C 92.993 47, 92 46.006, 92 37 C 92 28.113, 93.053 27, 101.458 27 L 107.773 27 108.268 23.750 C 108.540 21.962, 108.677 20.399, 108.573 20.275 C 107.699 19.239, 93.884 19.215, 91.094 20.244 M 138 34.566 C 138 43.155, 138.454 50.979, 139.012 52.023 C 140.142 54.135, 145.712 55.544, 148.913 54.528 C 151.891 53.583, 151.767 49.248, 148.750 48.820 C 146.547 48.507, 146.494 48.189, 146.223 33.750 L 145.947 19 141.973 19 L 138 19 138 34.566 M 154 34.566 C 154 43.155, 154.454 50.979, 155.012 52.023 C 156.142 54.135, 161.712 55.544, 164.913 54.528 C 167.891 53.583, 167.767 49.248, 164.750 48.820 C 162.547 48.507, 162.494 48.189, 162.223 33.750 L 161.947 19 157.973 19 L 154 19 154 34.566 M 184.094 20.244 C 179.192 22.051, 176.931 25.674, 176.290 32.742 C 175.037 46.553, 178.397 53.187, 187.321 54.525 C 189.877 54.909, 194.113 54.833, 196.734 54.357 C 201.167 53.552, 201.522 53.265, 201.813 50.246 L 202.127 47 195.135 47 C 185.977 47, 185 46.036, 185 37 C 185 28.113, 186.053 27, 194.458 27 L 200.773 27 201.268 23.750 C 201.540 21.962, 201.677 20.399, 201.573 20.275 C 200.699 19.239, 186.884 19.215, 184.094 20.244 M 6.624 21.539 C 6.281 22.432, 6.039 23.914, 6.086 24.832 C 6.133 25.749, 6.568 25.173, 7.053 23.550 C 7.996 20.394, 7.662 18.832, 6.624 21.539 M 262 26.500 C 262 29.333, 261.619 30, 260 30 C 258.533 30, 258 30.667, 258 32.500 C 258 34.333, 258.533 35, 260 35 C 261.832 35, 262 35.667, 262 42.929 C 262 48.800, 262.407 51.265, 263.570 52.427 C 265.691 54.548, 269.320 55.350, 273.364 54.591 C 276.256 54.049, 276.652 53.630, 276.252 51.538 C 275.922 49.810, 275.028 49.024, 273.144 48.806 C 270.611 48.513, 270.488 48.217, 270.204 41.750 L 269.909 35 273.454 35 C 276.570 35, 277 34.697, 277 32.500 C 277 30.310, 276.567 30, 273.500 30 C 270.167 30, 270 29.833, 270 26.500 C 270 23.083, 269.905 23, 266 23 C 262.095 23, 262 23.083, 262 26.500 M 5.300 32 C 5.300 35.025, 5.487 36.263, 5.716 34.750 C 5.945 33.237, 5.945 30.762, 5.716 29.250 C 5.487 27.738, 5.300 28.975, 5.300 32 M 210.026 30.306 C 205.700 31.793, 204.034 34.979, 204.015 41.800 C 203.986 52.161, 209.049 55.971, 220.987 54.571 C 227.291 53.831, 228.462 53.031, 227.532 50.100 C 226.926 48.192, 226.364 48.057, 221.415 48.639 C 216.973 49.161, 215.600 48.948, 213.983 47.485 C 210.839 44.639, 211.588 44, 218.066 44 C 225.149 44, 227.537 42.981, 228.387 39.596 C 230.373 31.682, 220.525 26.699, 210.026 30.306 M 243.017 30.589 C 240.755 31.570, 239.411 31.732, 239.183 31.050 C 238.991 30.472, 237.296 30, 235.417 30 L 232 30 232 42 L 232 54 236 54 L 240 54 240 46.035 C 240 37.539, 240.910 36, 245.934 36 C 247.869 36, 248 36.571, 248 45 L 248 54 252 54 L 256 54 256 43.057 C 256 32.882, 255.844 32.004, 253.777 30.557 C 251.012 28.620, 247.533 28.630, 243.017 30.589 M 284.026 30.306 C 279.700 31.793, 278.034 34.979, 278.015 41.800 C 277.986 52.161, 283.049 55.971, 294.987 54.571 C 301.291 53.831, 302.462 53.031, 301.532 50.100 C 300.926 48.192, 300.364 48.057, 295.415 48.639 C 290.973 49.161, 289.600 48.948, 287.983 47.485 C 284.839 44.639, 285.588 44, 292.066 44 C 299.149 44, 301.537 42.981, 302.387 39.596 C 304.373 31.682, 294.525 26.699, 284.026 30.306 M 316.561 30.734 C 313.678 31.928, 312.516 32.048, 312.227 31.182 C 312.011 30.532, 310.521 30, 308.917 30 L 306 30 306 42 L 306 54 310 54 L 314 54 314 46.045 L 314 38.091 317.750 37.467 C 323.721 36.475, 324 36.255, 324 32.531 C 324 28.441, 322.799 28.151, 316.561 30.734 M 57.657 30.707 C 56.471 31.013, 56.009 31.774, 56.360 32.841 C 58.992 40.850, 61 49.021, 61 51.728 C 61 54.447, 61.380 55.004, 63.250 55.025 C 64.813 55.042, 66.035 56.124, 67.250 58.566 C 70.452 64.999, 70.379 65.068, 58.250 67.016 C 50.610 68.243, 50.173 68.694, 51.991 73.475 C 52.779 75.550, 53.339 75.892, 54.741 75.155 C 55.708 74.647, 58.975 73.899, 62 73.494 L 67.500 72.758 65.500 75.051 C 64.400 76.312, 64.063 77.015, 64.750 76.613 C 66.366 75.668, 66.406 78.194, 64.800 79.800 C 63.936 80.664, 63.919 81, 64.741 81 C 65.369 81, 66.160 80.550, 66.500 80 C 66.840 79.450, 67.931 79, 68.924 79 C 69.918 79, 71.970 78.025, 73.485 76.833 C 75.972 74.877, 76.186 74.218, 75.690 70.031 C 75.388 67.481, 72.692 58.871, 69.699 50.896 C 63.889 35.417, 61.387 29.930, 60.224 30.116 C 59.826 30.180, 58.671 30.446, 57.657 30.707 M 60.251 35.250 C 60.507 35.938, 61.750 40.100, 63.013 44.500 C 65.467 53.046, 68.849 58.707, 67.494 52 C 66.693 48.034, 61.084 34, 60.300 34 C 60.017 34, 59.995 34.563, 60.251 35.250 M 213.750 36.080 C 210.526 37.958, 211.667 40, 215.941 40 C 220.304 40, 221.806 38.677, 219.964 36.456 C 218.563 34.769, 216.242 34.629, 213.750 36.080 M 287.750 36.080 C 284.526 37.958, 285.667 40, 289.941 40 C 294.304 40, 295.806 38.677, 293.964 36.456 C 292.563 34.769, 290.242 34.629, 287.750 36.080 M 6.087 39.500 C 5.977 42.570, 15.350 60.475, 20.189 66.441 C 22.560 69.364, 27.087 73.662, 30.250 75.992 C 33.412 78.321, 36.077 80.739, 36.171 81.364 C 36.265 81.989, 36.378 83.614, 36.421 84.975 C 36.488 87.082, 37.037 87.492, 40.107 87.731 C 42.568 87.923, 44.554 87.352, 46.357 85.934 C 49.319 83.604, 49.884 81.724, 47.326 82.705 C 46.036 83.200, 45.807 82.945, 46.326 81.592 C 46.697 80.626, 47.007 78.636, 47.015 77.168 C 47.027 75.078, 47.241 74.825, 48 76 C 49.342 78.076, 49.249 76.351, 47.875 73.684 C 46.480 70.975, 42.996 67.085, 41 66.006 C 38.580 64.698, 39.260 72.243, 41.859 75.548 C 44.372 78.742, 44.589 81.266, 42.500 83 C 41.241 84.045, 41 83.876, 41 81.942 C 41 80.491, 39.286 78.043, 36.361 75.320 C 31.709 70.988, 31.366 70.055, 35.173 72.093 C 36.606 72.859, 37.530 72.870, 38.270 72.130 C 39.565 70.835, 35.277 69, 30.957 69 C 28.590 69, 27.045 67.788, 22.714 62.538 C 19.782 58.983, 15.624 53.068, 13.475 49.392 C 11.325 45.717, 9.061 42.204, 8.444 41.587 C 7.827 40.969, 7.060 39.797, 6.740 38.982 C 6.322 37.918, 6.138 38.063, 6.087 39.500 M 118.667 43.667 C 117.631 44.703, 117.882 47.809, 119.060 48.537 C 120.850 49.643, 126 46.928, 126 44.879 C 126 43.416, 125.262 43, 122.667 43 C 120.833 43, 119.033 43.300, 118.667 43.667 M 71.031 66 C 71.031 71.207, 71.327 73.041, 72 72 C 72.533 71.175, 72.969 68.475, 72.969 66 C 72.969 63.525, 72.533 60.825, 72 60 C 71.327 58.959, 71.031 60.793, 71.031 66 M 40 86 C 40 86.550, 40.450 87, 41 87 C 41.550 87, 42 86.550, 42 86 C 42 85.450, 41.550 85, 41 85 C 40.450 85, 40 85.450, 40 86 M 41.235 90.708 C 39.990 90.947, 39.229 91.561, 39.544 92.071 C 40.433 93.510, 42.722 93.168, 43.362 91.500 C 43.678 90.675, 43.839 90.061, 43.719 90.136 C 43.598 90.211, 42.481 90.468, 41.235 90.708" stroke="none" fill="#1a6290" fill-rule="evenodd"/></svg>